<svg xmlns="http://www.w3.org/2000/svg" xml:space="preserve" width="100" height="100" fill="#0073e6" viewBox="-250.2 655.9 100 100">
  <style>
    .st0,.st1,.st2{fill:none;stroke:#0073e6;stroke-linecap:round}.st0{stroke-width:6.1973;stroke-linejoin:round}.st1,.st2{stroke-width:6.4261}.st2,.st3{stroke-linejoin:round}.st3,.st4{fill:none;stroke:#0073e6;stroke-width:6;stroke-linecap:round}.st5{fill:#0073e6}
  </style>
  <path d="M-172.4 734.3c-2-1.5-4.6-2-6.9-1.3-2.1.6-3.8 1.9-4.8 3.8s-1.3 4-.7 6.1c.4 1.5 2 2.4 3.5 1.9 1.5-.4 2.4-2 1.9-3.5-.2-.6-.1-1.2.2-1.8.3-.6.8-1 1.4-1.1.5-.1 1.3-.1 2 .4 1 .8 1.2 2.2 1.2 3.3 0 4.1-3.5 7.6-7.6 7.6-4.2 0-7.6-3.4-7.6-7.6 0-8.5 6.7-15.4 17.7-26.8l2.1-2.2c11.7-12.1 19.4-20 19.4-30.5 0-6-4.1-11.1-9.6-12.7h-.1c-34.7-9.5-43.9-12.1-46.5-12.7-.1-.1-.3-.1-.5-.2-1-.2-2.2-.4-3.3-.4-7.2 0-13.2 6-13.2 13.2 0 5 2.6 7.7 5.3 8.8.2.1.4.2.6.2h.2c3.5 1 46.1 12.7 46.6 12.8h.2c1.4.4 2.8.4 4.2 0 2.1-.6 3.8-1.9 4.8-3.8s1.3-4 .7-6.1c-.4-1.5-2-2.4-3.5-1.9-1.5.4-2.4 2-1.9 3.5.2.6.1 1.3-.2 1.8-.3.6-.8 1-1.4 1.1-.5.1-1.3.1-2-.4-1-.8-1.2-2.2-1.2-3.3 0-4.1 3.5-7.6 7.6-7.6 4.2 0 7.6 3.4 7.6 7.6 0 8.2-7.1 15.5-17.8 26.6l-2.1 2.2c-11.6 12-19.3 19.9-19.3 30.7 0 1.6.3 3.1.8 4.5-26.1-7.2-33.8-9.3-36.1-9.9-.1-.1-.3-.1-.4-.2-3.3-.9-5.5-3.9-5.5-7.3 0-8.5 6.7-15.4 17.7-26.8l2.1-2.1c4-4.1 7.4-7.6 10.2-10.9 1-1.2.9-3-.3-4s-3-.9-4 .3c-2.8 3.2-6.1 6.7-10 10.7l-2.1 2.1c-11.6 12-19.3 19.9-19.3 30.7 0 5.9 4 11.1 9.6 12.7h.1c1.8.5 46.3 12.7 46.8 12.8h.2c1.1.3 2.2.4 3.4.4 7.2 0 13.2-6 13.2-13.2.1-3-1.2-5.8-3.4-7.5zm-38-72.1c.6 0 1.4.1 1.9.2 1.3.4 23.1 6.3 36.4 10-2.9 2.4-4.9 6.1-4.9 10.2 0 .6 0 1.1.1 1.7-28.1-7.7-36.4-10-39-10.7-.1 0-.2-.1-.2-.1-1.3-.4-2-1.7-2-3.7.1-4.1 3.6-7.6 7.7-7.6zm34.8 38.5c-.3 0-.7-.1-1-.2-2.5-.9-22.3-6.3-24.9-6.9-1.7-.4-2.7-2.1-2.3-3.7.4-1.7 2.1-2.7 3.7-2.3 2.6.6 22.5 6.1 25.4 7.1 1.6.5 2.5 2.3 1.9 3.9-.3 1.3-1.5 2.1-2.8 2.1zm-13.4 5.2c-.3 0-.7-.1-1-.2-1.8-.6-16.2-4.6-18.1-5-1.7-.4-2.7-2.1-2.3-3.7.4-1.7 2.1-2.7 3.7-2.3 1.9.5 16.5 4.4 18.6 5.2 1.6.5 2.5 2.3 1.9 3.9-.3 1.3-1.5 2.1-2.8 2.1zm-13.4 14.1c-.3 0-.7-.1-1-.2-1.9-.6-16.2-4.6-18.1-5-1.7-.4-2.7-2.1-2.3-3.7.4-1.7 2.1-2.7 3.7-2.3 1.9.5 16.4 4.4 18.6 5.2 1.6.5 2.5 2.3 1.9 3.9-.3 1.2-1.5 2.1-2.8 2.1zm13.5-5.2c-.3 0-.7-.1-1-.2-2.6-.9-22.3-6.3-24.9-6.9-1.7-.4-2.7-2.1-2.3-3.7.4-1.7 2.1-2.7 3.7-2.3 2.5.6 22.4 6 25.4 7.1 1.6.5 2.5 2.3 1.9 3.9-.3 1.3-1.5 2.1-2.8 2.1z"/>
</svg>